0
SECTION
2
HEADER
9
$ACADVER
1
AC1014
9
$HANDSEED
5
FFFF
0
ENDSEC
0
SECTION
2
TABLES
0
TABLE
2
VPORT
5
8
100
AcDbSymbolTable
0
ENDTAB
0
TABLE
2
LTYPE
5
5
100
AcDbSymbolTable
0
LTYPE
5
14
100
AcDbSymbolTableRecord
100
AcDbLinetypeTableRecord
2
BYBLOCK
70
0
0
LTYPE
5
15
100
AcDbSymbolTableRecord
100
AcDbLinetypeTableRecord
2
BYLAYER
70
0
0
ENDTAB
0
TABLE
2
LAYER
5
2
100
AcDbSymbolTable
70
2
0
LAYER
5
50
100
AcDbSymbolTableRecord
100
AcDbLayerTableRecord
2
0
70
0
6
CONTINUOUS
0
ENDTAB
0
TABLE
2
STYLE
5
3
100
AcDbSymbolTable
70
1
0
STYLE
5
11
100
AcDbSymbolTableRecord
100
AcDbTextStyleTableRecord
2
STANDARD
70
0
0
ENDTAB
0
TABLE
2
VIEW
5
6
100
AcDbSymbolTable
70
0
0
ENDTAB
0
TABLE
2
UCS
5
7
100
AcDbSymbolTable
70
0
0
ENDTAB
0
TABLE
2
APPID
5
9
100
AcDbSymbolTable
70
2
0
APPID
5
12
100
AcDbSymbolTableRecord
100
AcDbRegAppTableRecord
2
ACAD
70
0
0
ENDTAB
0
TABLE
2
DIMSTYLE
5
A
100
AcDbSymbolTable
70
1
0
ENDTAB
0
TABLE
2
BLOCK_RECORD
5
1
100
AcDbSymbolTable
70
1
0
BLOCK_RECORD
5
1F
100
AcDbSymbolTableRecord
100
AcDbBlockTableRecord
2
*MODEL_SPACE
0
BLOCK_RECORD
5
1B
100
AcDbSymbolTableRecord
100
AcDbBlockTableRecord
2
*PAPER_SPACE
0
ENDTAB
0
ENDSEC
0
SECTION
2
BLOCKS
0
BLOCK
5
20
100
AcDbEntity
100
AcDbBlockBegin
2
*MODEL_SPACE
0
ENDBLK
5
21
100
AcDbEntity
100
AcDbBlockEnd
0
BLOCK
5
1C
100
AcDbEntity
100
AcDbBlockBegin
2
*PAPER_SPACE
0
ENDBLK
5
1D
100
AcDbEntity
100
AcDbBlockEnd
0
ENDSEC
0
SECTION
2
ENTITIES
0
LWPOLYLINE
5
100
100
AcDbEntity
8
0
100
AcDbPolyline
90
4
70
1
43
0.0
10
-113.53376674105043
20
33.506767994889742
10
-119.53376674105041
20
33.506767994889742
10
-119.53376674105039
20
21.506767994889753
10
-113.53376674105039
20
21.506767994889753
0
LWPOLYLINE
5
101
100
AcDbEntity
8
0
100
AcDbPolyline
90
4
70
1
43
0.0
10
-119.53376674105039
20
129.50676799488974
10
-119.53376674105041
20
117.50676799488973
10
-113.53376674105043
20
117.50676799488973
10
-113.53376674105039
20
129.50676799488974
0
LWPOLYLINE
5
102
100
AcDbEntity
8
0
100
AcDbPolyline
90
4
70
1
43
0.0
10
-19.533766741050442
20
21.506767994889717
10
-19.533766741050425
20
33.506767994889728
10
-25.533766741050403
20
33.506767994889728
10
-25.533766741050439
20
21.506767994889735
0
CIRCLE
5
103
100
AcDbEntity
8
0
100
AcDbCircle
10
-116.53376674105039
20
15.506767994889742
30
0
40
2.0000000000000107
0
CIRCLE
5
104
100
AcDbEntity
8
0
100
AcDbCircle
10
-116.53376674105039
20
135.50676799488974
30
0
40
2.0000000000000107
0
LWPOLYLINE
5
105
100
AcDbEntity
8
0
100
AcDbPolyline
90
4
70
1
43
0.0
10
-19.53376674105046
20
9.5067679948897243
10
-25.533766741050457
20
9.5067679948897243
10
-25.533766741050439
20
-2.4932320051102685
10
-19.53376674105046
20
-2.4932320051102685
0
CIRCLE
5
106
100
AcDbEntity
8
0
100
AcDbCircle
10
-22.533766741050414
20
135.50676799488971
30
0
40
2.0000000000000018
0
CIRCLE
5
107
100
AcDbEntity
8
0
100
AcDbCircle
10
-22.533766741050449
20
15.50676799488973
30
0
40
2.0000000000000018
0
LWPOLYLINE
5
108
100
AcDbEntity
8
0
100
AcDbPolyline
90
4
70
1
43
0.0
10
-19.533766741050407
20
117.50676799488971
10
-19.533766741050407
20
129.50676799488974
10
-25.533766741050403
20
129.50676799488974
10
-25.533766741050385
20
117.50676799488971
0
LWPOLYLINE
5
109
100
AcDbEntity
8
0
100
AcDbPolyline
90
4
70
1
43
0.0
10
-119.53376674105039
20
9.5067679948897421
10
-119.53376674105039
20
-2.4932320051102685
10
-113.53376674105041
20
-2.4932320051102685
10
-113.53376674105039
20
9.5067679948897421
0
LWPOLYLINE
5
110
100
AcDbEntity
8
0
100
AcDbPolyline
90
4
70
1
43
0.0
10
-19.533766741050407
20
141.50676799488974
10
-19.533766741050407
20
153.50676799488974
10
-25.533766741050385
20
153.50676799488974
10
-25.533766741050403
20
141.50676799488974
0
LWPOLYLINE
5
111
100
AcDbEntity
8
0
100
AcDbPolyline
90
4
70
1
43
0.0
10
-119.53376674105039
20
141.50676799488974
10
-113.53376674105039
20
141.50676799488974
10
-113.53376674105041
20
153.50676799488974
10
-119.53376674105039
20
153.50676799488974
0
LWPOLYLINE
5
112
100
AcDbEntity
8
0
100
AcDbPolyline
90
4
70
1
43
0.0
10
-17.533766741050414
20
-16.493232005110237
10
-121.5337667410504
20
-16.493232005110272
10
-121.53376674105044
20
167.50676799488971
10
-17.533766741050414
20
167.50676799488974
0
LWPOLYLINE
5
113
100
AcDbEntity
8
0
100
AcDbPolyline
90
4
70
1
43
0.0
10
-119.53376674105041
20
33.506767994889742
10
-113.53376674105043
20
33.506767994889742
10
-113.53376674105039
20
21.506767994889753
10
-119.53376674105039
20
21.506767994889753
0
LWPOLYLINE
5
114
100
AcDbEntity
8
0
100
AcDbPolyline
90
4
70
1
43
0.0
10
-119.53376674105041
20
117.50676799488973
10
-119.53376674105039
20
129.50676799488974
10
-113.53376674105039
20
129.50676799488974
10
-113.53376674105043
20
117.50676799488973
0
LWPOLYLINE
5
115
100
AcDbEntity
8
0
100
AcDbPolyline
90
4
70
1
43
0.0
10
-19.533766741050425
20
33.506767994889728
10
-19.533766741050442
20
21.506767994889717
10
-25.533766741050439
20
21.506767994889735
10
-25.533766741050403
20
33.506767994889728
0
CIRCLE
5
116
100
AcDbEntity
8
0
100
AcDbCircle
10
-116.53376674105039
20
15.506767994889742
30
0
40
2.0000000000000107
0
CIRCLE
5
117
100
AcDbEntity
8
0
100
AcDbCircle
10
-116.53376674105039
20
135.50676799488974
30
0
40
2.0000000000000107
0
LWPOLYLINE
5
118
100
AcDbEntity
8
0
100
AcDbPolyline
90
4
70
1
43
0.0
10
-25.533766741050457
20
9.5067679948897243
10
-19.53376674105046
20
9.5067679948897243
10
-19.53376674105046
20
-2.4932320051102685
10
-25.533766741050439
20
-2.4932320051102685
0
CIRCLE
5
119
100
AcDbEntity
8
0
100
AcDbCircle
10
-22.533766741050414
20
135.50676799488971
30
0
40
2.0000000000000018
0
CIRCLE
5
120
100
AcDbEntity
8
0
100
AcDbCircle
10
-22.533766741050449
20
15.50676799488973
30
0
40
2.0000000000000018
0
LWPOLYLINE
5
121
100
AcDbEntity
8
0
100
AcDbPolyline
90
4
70
1
43
0.0
10
-19.533766741050407
20
129.50676799488974
10
-19.533766741050407
20
117.50676799488971
10
-25.533766741050385
20
117.50676799488971
10
-25.533766741050403
20
129.50676799488974
0
LWPOLYLINE
5
122
100
AcDbEntity
8
0
100
AcDbPolyline
90
4
70
1
43
0.0
10
-119.53376674105039
20
-2.4932320051102685
10
-119.53376674105039
20
9.5067679948897421
10
-113.53376674105039
20
9.5067679948897421
10
-113.53376674105041
20
-2.4932320051102685
0
LWPOLYLINE
5
123
100
AcDbEntity
8
0
100
AcDbPolyline
90
4
70
1
43
0.0
10
-19.533766741050407
20
153.50676799488974
10
-19.533766741050407
20
141.50676799488974
10
-25.533766741050403
20
141.50676799488974
10
-25.533766741050385
20
153.50676799488974
0
LWPOLYLINE
5
124
100
AcDbEntity
8
0
100
AcDbPolyline
90
4
70
1
43
0.0
10
-113.53376674105039
20
141.50676799488974
10
-119.53376674105039
20
141.50676799488974
10
-119.53376674105039
20
153.50676799488974
10
-113.53376674105041
20
153.50676799488974
0
LWPOLYLINE
5
125
100
AcDbEntity
8
0
100
AcDbPolyline
90
4
70
1
43
0.0
10
-121.5337667410504
20
-16.493232005110254
10
-17.533766741050414
20
-16.493232005110237
10
-17.533766741050414
20
167.50676799488974
10
-121.53376674105044
20
167.50676799488971
0
LWPOLYLINE
5
126
100
AcDbEntity
8
0
100
AcDbPolyline
90
4
70
1
43
0.0
10
-75.5337667410504
20
158.5067679948898
10
-75.5337667410504
20
164.5067679948898
10
-63.533766741050393
20
164.5067679948898
10
-63.533766741050385
20
158.5067679948898
0
LWPOLYLINE
5
127
100
AcDbEntity
8
0
100
AcDbPolyline
90
4
70
1
43
0.0
10
-63.5337667410504
20
-7.4932320051102703
10
-75.5337667410504
20
-7.4932320051102685
10
-75.533766741050414
20
-13.493232005110269
10
-63.5337667410504
20
-13.493232005110272
0
ENDSEC
0
SECTION
2
OBJECTS
0
DICTIONARY
5
C
100
AcDbDictionary
3
ACAD_GROUP
350
D
3
ACAD_MLINESTYLE
350
17
0
DICTIONARY
5
D
100
AcDbDictionary
0
DICTIONARY
5
1A
330
C
100
AcDbDictionary
0
DICTIONARY
5
17
100
AcDbDictionary
0
ENDSEC
0
EOF
